<?xml version="1.0" encoding="utf-8" standalone="no"?>
<!DOCTYPE svg PUBLIC "-//W3C//DTD SVG 1.1//EN"
  "http://www.w3.org/Graphics/SVG/1.1/DTD/svg11.dtd">
<svg xmlns:xlink="http://www.w3.org/1999/xlink" width="864pt" height="360pt" viewBox="0 0 864 360" xmlns="http://www.w3.org/2000/svg" version="1.1">
 <metadata>
  <rdf:RDF xmlns:dc="http://purl.org/dc/elements/1.1/" xmlns:cc="http://creativecommons.org/ns#" xmlns:rdf="http://www.w3.org/1999/02/22-rdf-syntax-ns#">
   <cc:Work>
    <dc:type rdf:resource="http://purl.org/dc/dcmitype/StillImage"/>
    <dc:date>2025-06-05T06:54:27.473612</dc:date>
    <dc:format>image/svg+xml</dc:format>
    <dc:creator>
     <cc:Agent>
      <dc:title>Matplotlib v3.10.3, https://matplotlib.org/</dc:title>
     </cc:Agent>
    </dc:creator>
   </cc:Work>
  </rdf:RDF>
 </metadata>
 <defs>
  <style type="text/css">*{stroke-linejoin: round; stroke-linecap: butt}</style>
 </defs>
 <g id="figure_1">
  <g id="patch_1">
   <path d="M 0 360 
L 864 360 
L 864 0 
L 0 0 
z
" style="fill: #ffffff"/>
  </g>
  <g id="axes_1">
   <g id="patch_2">
    <path d="M 47.72 316.6 
L 417.06 316.6 
L 417.06 10.8 
L 47.72 10.8 
z
" style="fill: #ffffff"/>
   </g>
   <g id="FillBetweenPolyCollection_1">
    <path d="M 64.508182 268.921071 
L 64.508182 302.7 
L 101.815253 169.632094 
L 139.122323 103.728637 
L 176.429394 69.992937 
L 213.736465 51.288523 
L 251.043535 38.588851 
L 288.350606 33.135436 
L 325.657677 29.396379 
L 362.964747 28.571112 
L 400.271818 26.678085 
L 400.271818 24.7 
L 400.271818 24.7 
L 362.964747 24.830169 
L 325.657677 25.032592 
L 288.350606 26.558764 
L 251.043535 29.627542 
L 213.736465 38.312541 
L 176.429394 52.795381 
L 139.122323 81.177684 
L 101.815253 140.602774 
L 64.508182 268.921071 
z
" clip-path="url(#p082a4fa186)" style="fill: #1f77b4; fill-opacity: 0.3"/>
   </g>
   <g id="matplotlib.axis_1">
    <g id="xtick_1">
     <g id="line2d_1">
      <path d="M 101.815253 316.6 
L 101.815253 10.8 
" clip-path="url(#p082a4fa186)" style="fill: none; stroke: #b0b0b0; stroke-width: 0.8; stroke-linecap: square"/>
     </g>
     <g id="line2d_2">
      <defs>
       <path id="m7f684beeb6" d="M 0 0 
L 0 3.5 
" style="stroke: #000000; stroke-width: 0.8"/>
      </defs>
      <g>
       <use xlink:href="#m7f684beeb6" x="101.815253" y="316.6" style="stroke: #000000; stroke-width: 0.8"/>
      </g>
     </g>
     <g id="text_1">
      <!-- 2 -->
      <g transform="translate(98.634003 331.198438) scale(0.1 -0.1)">
       <defs>
        <path id="DejaVuSans-32" d="M 1228 531 
L 3431 531 
L 3431 0 
L 469 0 
L 469 531 
Q 828 903 1448 1529 
Q 2069 2156 2228 2338 
Q 2531 2678 2651 2914 
Q 2772 3150 2772 3378 
Q 2772 3750 2511 3984 
Q 2250 4219 1831 4219 
Q 1534 4219 1204 4116 
Q 875 4013 500 3803 
L 500 4441 
Q 881 4594 1212 4672 
Q 1544 4750 1819 4750 
Q 2544 4750 2975 4387 
Q 3406 4025 3406 3419 
Q 3406 3131 3298 2873 
Q 3191 2616 2906 2266 
Q 2828 2175 2409 1742 
Q 1991 1309 1228 531 
z
" transform="scale(0.015625)"/>
       </defs>
       <use xlink:href="#DejaVuSans-32"/>
      </g>
     </g>
    </g>
    <g id="xtick_2">
     <g id="line2d_3">
      <path d="M 176.429394 316.6 
L 176.429394 10.8 
" clip-path="url(#p082a4fa186)" style="fill: none; stroke: #b0b0b0; stroke-width: 0.8; stroke-linecap: square"/>
     </g>
     <g id="line2d_4">
      <g>
       <use xlink:href="#m7f684beeb6" x="176.429394" y="316.6" style="stroke: #000000; stroke-width: 0.8"/>
      </g>
     </g>
     <g id="text_2">
      <!-- 4 -->
      <g transform="translate(173.248144 331.198438) scale(0.1 -0.1)">
       <defs>
        <path id="DejaVuSans-34" d="M 2419 4116 
L 825 1625 
L 2419 1625 
L 2419 4116 
z
M 2253 4666 
L 3047 4666 
L 3047 1625 
L 3713 1625 
L 3713 1100 
L 3047 1100 
L 3047 0 
L 2419 0 
L 2419 1100 
L 313 1100 
L 313 1709 
L 2253 4666 
z
" transform="scale(0.015625)"/>
       </defs>
       <use xlink:href="#DejaVuSans-34"/>
      </g>
     </g>
    </g>
    <g id="xtick_3">
     <g id="line2d_5">
      <path d="M 251.043535 316.6 
L 251.043535 10.8 
" clip-path="url(#p082a4fa186)" style="fill: none; stroke: #b0b0b0; stroke-width: 0.8; stroke-linecap: square"/>
     </g>
     <g id="line2d_6">
      <g>
       <use xlink:href="#m7f684beeb6" x="251.043535" y="316.6" style="stroke: #000000; stroke-width: 0.8"/>
      </g>
     </g>
     <g id="text_3">
      <!-- 6 -->
      <g transform="translate(247.862285 331.198438) scale(0.1 -0.1)">
       <defs>
        <path id="DejaVuSans-36" d="M 2113 2584 
Q 1688 2584 1439 2293 
Q 1191 2003 1191 1497 
Q 1191 994 1439 701 
Q 1688 409 2113 409 
Q 2538 409 2786 701 
Q 3034 994 3034 1497 
Q 3034 2003 2786 2293 
Q 2538 2584 2113 2584 
z
M 3366 4563 
L 3366 3988 
Q 3128 4100 2886 4159 
Q 2644 4219 2406 4219 
Q 1781 4219 1451 3797 
Q 1122 3375 1075 2522 
Q 1259 2794 1537 2939 
Q 1816 3084 2150 3084 
Q 2853 3084 3261 2657 
Q 3669 2231 3669 1497 
Q 3669 778 3244 343 
Q 2819 -91 2113 -91 
Q 1303 -91 875 529 
Q 447 1150 447 2328 
Q 447 3434 972 4092 
Q 1497 4750 2381 4750 
Q 2619 4750 2861 4703 
Q 3103 4656 3366 4563 
z
" transform="scale(0.015625)"/>
       </defs>
       <use xlink:href="#DejaVuSans-36"/>
      </g>
     </g>
    </g>
    <g id="xtick_4">
     <g id="line2d_7">
      <path d="M 325.657677 316.6 
L 325.657677 10.8 
" clip-path="url(#p082a4fa186)" style="fill: none; stroke: #b0b0b0; stroke-width: 0.8; stroke-linecap: square"/>
     </g>
     <g id="line2d_8">
      <g>
       <use xlink:href="#m7f684beeb6" x="325.657677" y="316.6" style="stroke: #000000; stroke-width: 0.8"/>
      </g>
     </g>
     <g id="text_4">
      <!-- 8 -->
      <g transform="translate(322.476427 331.198438) scale(0.1 -0.1)">
       <defs>
        <path id="DejaVuSans-38" d="M 2034 2216 
Q 1584 2216 1326 1975 
Q 1069 1734 1069 1313 
Q 1069 891 1326 650 
Q 1584 409 2034 409 
Q 2484 409 2743 651 
Q 3003 894 3003 1313 
Q 3003 1734 2745 1975 
Q 2488 2216 2034 2216 
z
M 1403 2484 
Q 997 2584 770 2862 
Q 544 3141 544 3541 
Q 544 4100 942 4425 
Q 1341 4750 2034 4750 
Q 2731 4750 3128 4425 
Q 3525 4100 3525 3541 
Q 3525 3141 3298 2862 
Q 3072 2584 2669 2484 
Q 3125 2378 3379 2068 
Q 3634 1759 3634 1313 
Q 3634 634 3220 271 
Q 2806 -91 2034 -91 
Q 1263 -91 848 271 
Q 434 634 434 1313 
Q 434 1759 690 2068 
Q 947 2378 1403 2484 
z
M 1172 3481 
Q 1172 3119 1398 2916 
Q 1625 2713 2034 2713 
Q 2441 2713 2670 2916 
Q 2900 3119 2900 3481 
Q 2900 3844 2670 4047 
Q 2441 4250 2034 4250 
Q 1625 4250 1398 4047 
Q 1172 3844 1172 3481 
z
" transform="scale(0.015625)"/>
       </defs>
       <use xlink:href="#DejaVuSans-38"/>
      </g>
     </g>
    </g>
    <g id="xtick_5">
     <g id="line2d_9">
      <path d="M 400.271818 316.6 
L 400.271818 10.8 
" clip-path="url(#p082a4fa186)" style="fill: none; stroke: #b0b0b0; stroke-width: 0.8; stroke-linecap: square"/>
     </g>
     <g id="line2d_10">
      <g>
       <use xlink:href="#m7f684beeb6" x="400.271818" y="316.6" style="stroke: #000000; stroke-width: 0.8"/>
      </g>
     </g>
     <g id="text_5">
      <!-- 10 -->
      <g transform="translate(393.909318 331.198438) scale(0.1 -0.1)">
       <defs>
        <path id="DejaVuSans-31" d="M 794 531 
L 1825 531 
L 1825 4091 
L 703 3866 
L 703 4441 
L 1819 4666 
L 2450 4666 
L 2450 531 
L 3481 531 
L 3481 0 
L 794 0 
L 794 531 
z
" transform="scale(0.015625)"/>
        <path id="DejaVuSans-30" d="M 2034 4250 
Q 1547 4250 1301 3770 
Q 1056 3291 1056 2328 
Q 1056 1369 1301 889 
Q 1547 409 2034 409 
Q 2525 409 2770 889 
Q 3016 1369 3016 2328 
Q 3016 3291 2770 3770 
Q 2525 4250 2034 4250 
z
M 2034 4750 
Q 2819 4750 3233 4129 
Q 3647 3509 3647 2328 
Q 3647 1150 3233 529 
Q 2819 -91 2034 -91 
Q 1250 -91 836 529 
Q 422 1150 422 2328 
Q 422 3509 836 4129 
Q 1250 4750 2034 4750 
z
" transform="scale(0.015625)"/>
       </defs>
       <use xlink:href="#DejaVuSans-31"/>
       <use xlink:href="#DejaVuSans-30" transform="translate(63.623047 0)"/>
      </g>
     </g>
    </g>
    <g id="text_6">
     <!-- $K$ (ensemble size) -->
     <g transform="translate(187.89 344.876563) scale(0.1 -0.1)">
      <defs>
       <path id="DejaVuSans-Oblique-4b" d="M 1081 4666 
L 1716 4666 
L 1331 2700 
L 3781 4666 
L 4622 4666 
L 1850 2438 
L 3878 0 
L 3109 0 
L 1247 2272 
L 806 0 
L 172 0 
L 1081 4666 
z
" transform="scale(0.015625)"/>
       <path id="DejaVuSans-20" transform="scale(0.015625)"/>
       <path id="DejaVuSans-28" d="M 1984 4856 
Q 1566 4138 1362 3434 
Q 1159 2731 1159 2009 
Q 1159 1288 1364 580 
Q 1569 -128 1984 -844 
L 1484 -844 
Q 1016 -109 783 600 
Q 550 1309 550 2009 
Q 550 2706 781 3412 
Q 1013 4119 1484 4856 
L 1984 4856 
z
" transform="scale(0.015625)"/>
       <path id="DejaVuSans-65" d="M 3597 1894 
L 3597 1613 
L 953 1613 
Q 991 1019 1311 708 
Q 1631 397 2203 397 
Q 2534 397 2845 478 
Q 3156 559 3463 722 
L 3463 178 
Q 3153 47 2828 -22 
Q 2503 -91 2169 -91 
Q 1331 -91 842 396 
Q 353 884 353 1716 
Q 353 2575 817 3079 
Q 1281 3584 2069 3584 
Q 2775 3584 3186 3129 
Q 3597 2675 3597 1894 
z
M 3022 2063 
Q 3016 2534 2758 2815 
Q 2500 3097 2075 3097 
Q 1594 3097 1305 2825 
Q 1016 2553 972 2059 
L 3022 2063 
z
" transform="scale(0.015625)"/>
       <path id="DejaVuSans-6e" d="M 3513 2113 
L 3513 0 
L 2938 0 
L 2938 2094 
Q 2938 2591 2744 2837 
Q 2550 3084 2163 3084 
Q 1697 3084 1428 2787 
Q 1159 2491 1159 1978 
L 1159 0 
L 581 0 
L 581 3500 
L 1159 3500 
L 1159 2956 
Q 1366 3272 1645 3428 
Q 1925 3584 2291 3584 
Q 2894 3584 3203 3211 
Q 3513 2838 3513 2113 
z
" transform="scale(0.015625)"/>
       <path id="DejaVuSans-73" d="M 2834 3397 
L 2834 2853 
Q 2591 2978 2328 3040 
Q 2066 3103 1784 3103 
Q 1356 3103 1142 2972 
Q 928 2841 928 2578 
Q 928 2378 1081 2264 
Q 1234 2150 1697 2047 
L 1894 2003 
Q 2506 1872 2764 1633 
Q 3022 1394 3022 966 
Q 3022 478 2636 193 
Q 2250 -91 1575 -91 
Q 1294 -91 989 -36 
Q 684 19 347 128 
L 347 722 
Q 666 556 975 473 
Q 1284 391 1588 391 
Q 1994 391 2212 530 
Q 2431 669 2431 922 
Q 2431 1156 2273 1281 
Q 2116 1406 1581 1522 
L 1381 1569 
Q 847 1681 609 1914 
Q 372 2147 372 2553 
Q 372 3047 722 3315 
Q 1072 3584 1716 3584 
Q 2034 3584 2315 3537 
Q 2597 3491 2834 3397 
z
" transform="scale(0.015625)"/>
       <path id="DejaVuSans-6d" d="M 3328 2828 
Q 3544 3216 3844 3400 
Q 4144 3584 4550 3584 
Q 5097 3584 5394 3201 
Q 5691 2819 5691 2113 
L 5691 0 
L 5113 0 
L 5113 2094 
Q 5113 2597 4934 2840 
Q 4756 3084 4391 3084 
Q 3944 3084 3684 2787 
Q 3425 2491 3425 1978 
L 3425 0 
L 2847 0 
L 2847 2094 
Q 2847 2600 2669 2842 
Q 2491 3084 2119 3084 
Q 1678 3084 1418 2786 
Q 1159 2488 1159 1978 
L 1159 0 
L 581 0 
L 581 3500 
L 1159 3500 
L 1159 2956 
Q 1356 3278 1631 3431 
Q 1906 3584 2284 3584 
Q 2666 3584 2933 3390 
Q 3200 3197 3328 2828 
z
" transform="scale(0.015625)"/>
       <path id="DejaVuSans-62" d="M 3116 1747 
Q 3116 2381 2855 2742 
Q 2594 3103 2138 3103 
Q 1681 3103 1420 2742 
Q 1159 2381 1159 1747 
Q 1159 1113 1420 752 
Q 1681 391 2138 391 
Q 2594 391 2855 752 
Q 3116 1113 3116 1747 
z
M 1159 2969 
Q 1341 3281 1617 3432 
Q 1894 3584 2278 3584 
Q 2916 3584 3314 3078 
Q 3713 2572 3713 1747 
Q 3713 922 3314 415 
Q 2916 -91 2278 -91 
Q 1894 -91 1617 61 
Q 1341 213 1159 525 
L 1159 0 
L 581 0 
L 581 4863 
L 1159 4863 
L 1159 2969 
z
" transform="scale(0.015625)"/>
       <path id="DejaVuSans-6c" d="M 603 4863 
L 1178 4863 
L 1178 0 
L 603 0 
L 603 4863 
z
" transform="scale(0.015625)"/>
       <path id="DejaVuSans-69" d="M 603 3500 
L 1178 3500 
L 1178 0 
L 603 0 
L 603 3500 
z
M 603 4863 
L 1178 4863 
L 1178 4134 
L 603 4134 
L 603 4863 
z
" transform="scale(0.015625)"/>
       <path id="DejaVuSans-7a" d="M 353 3500 
L 3084 3500 
L 3084 2975 
L 922 459 
L 3084 459 
L 3084 0 
L 275 0 
L 275 525 
L 2438 3041 
L 353 3041 
L 353 3500 
z
" transform="scale(0.015625)"/>
       <path id="DejaVuSans-29" d="M 513 4856 
L 1013 4856 
Q 1481 4119 1714 3412 
Q 1947 2706 1947 2009 
Q 1947 1309 1714 600 
Q 1481 -109 1013 -844 
L 513 -844 
Q 928 -128 1133 580 
Q 1338 1288 1338 2009 
Q 1338 2731 1133 3434 
Q 928 4138 513 4856 
z
" transform="scale(0.015625)"/>
      </defs>
      <use xlink:href="#DejaVuSans-Oblique-4b" transform="translate(0 0.015625)"/>
      <use xlink:href="#DejaVuSans-20" transform="translate(65.576172 0.015625)"/>
      <use xlink:href="#DejaVuSans-28" transform="translate(97.363281 0.015625)"/>
      <use xlink:href="#DejaVuSans-65" transform="translate(136.376953 0.015625)"/>
      <use xlink:href="#DejaVuSans-6e" transform="translate(197.900391 0.015625)"/>
      <use xlink:href="#DejaVuSans-73" transform="translate(261.279297 0.015625)"/>
      <use xlink:href="#DejaVuSans-65" transform="translate(313.378906 0.015625)"/>
      <use xlink:href="#DejaVuSans-6d" transform="translate(374.902344 0.015625)"/>
      <use xlink:href="#DejaVuSans-62" transform="translate(472.314453 0.015625)"/>
      <use xlink:href="#DejaVuSans-6c" transform="translate(535.791016 0.015625)"/>
      <use xlink:href="#DejaVuSans-65" transform="translate(563.574219 0.015625)"/>
      <use xlink:href="#DejaVuSans-20" transform="translate(625.097656 0.015625)"/>
      <use xlink:href="#DejaVuSans-73" transform="translate(656.884766 0.015625)"/>
      <use xlink:href="#DejaVuSans-69" transform="translate(708.984375 0.015625)"/>
      <use xlink:href="#DejaVuSans-7a" transform="translate(736.767578 0.015625)"/>
      <use xlink:href="#DejaVuSans-65" transform="translate(789.257812 0.015625)"/>
      <use xlink:href="#DejaVuSans-29" transform="translate(850.78125 0.015625)"/>
     </g>
    </g>
   </g>
   <g id="matplotlib.axis_2">
    <g id="ytick_1">
     <g id="line2d_11">
      <path d="M 47.72 293.3094 
L 417.06 293.3094 
" clip-path="url(#p082a4fa186)" style="fill: none; stroke: #b0b0b0; stroke-width: 0.8; stroke-linecap: square"/>
     </g>
     <g id="line2d_12">
      <defs>
       <path id="md466d47075" d="M 0 0 
L -3.5 0 
" style="stroke: #000000; stroke-width: 0.8"/>
      </defs>
      <g>
       <use xlink:href="#md466d47075" x="47.72" y="293.3094" style="stroke: #000000; stroke-width: 0.8"/>
      </g>
     </g>
     <g id="text_7">
      <!-- 0.5 -->
      <g transform="translate(24.816875 297.108619) scale(0.1 -0.1)">
       <defs>
        <path id="DejaVuSans-2e" d="M 684 794 
L 1344 794 
L 1344 0 
L 684 0 
L 684 794 
z
" transform="scale(0.015625)"/>
        <path id="DejaVuSans-35" d="M 691 4666 
L 3169 4666 
L 3169 4134 
L 1269 4134 
L 1269 2991 
Q 1406 3038 1543 3061 
Q 1681 3084 1819 3084 
Q 2600 3084 3056 2656 
Q 3513 2228 3513 1497 
Q 3513 744 3044 326 
Q 2575 -91 1722 -91 
Q 1428 -91 1123 -41 
Q 819 9 494 109 
L 494 744 
Q 775 591 1075 516 
Q 1375 441 1709 441 
Q 2250 441 2565 725 
Q 2881 1009 2881 1497 
Q 2881 1984 2565 2268 
Q 2250 2553 1709 2553 
Q 1456 2553 1204 2497 
Q 953 2441 691 2322 
L 691 4666 
z
" transform="scale(0.015625)"/>
       </defs>
       <use xlink:href="#DejaVuSans-30"/>
       <use xlink:href="#DejaVuSans-2e" transform="translate(63.623047 0)"/>
       <use xlink:href="#DejaVuSans-35" transform="translate(95.410156 0)"/>
      </g>
     </g>
    </g>
    <g id="ytick_2">
     <g id="line2d_13">
      <path d="M 47.72 239.58752 
L 417.06 239.58752 
" clip-path="url(#p082a4fa186)" style="fill: none; stroke: #b0b0b0; stroke-width: 0.8; stroke-linecap: square"/>
     </g>
     <g id="line2d_14">
      <g>
       <use xlink:href="#md466d47075" x="47.72" y="239.58752" style="stroke: #000000; stroke-width: 0.8"/>
      </g>
     </g>
     <g id="text_8">
      <!-- 0.6 -->
      <g transform="translate(24.816875 243.386739) scale(0.1 -0.1)">
       <use xlink:href="#DejaVuSans-30"/>
       <use xlink:href="#DejaVuSans-2e" transform="translate(63.623047 0)"/>
       <use xlink:href="#DejaVuSans-36" transform="translate(95.410156 0)"/>
      </g>
     </g>
    </g>
    <g id="ytick_3">
     <g id="line2d_15">
      <path d="M 47.72 185.86564 
L 417.06 185.86564 
" clip-path="url(#p082a4fa186)" style="fill: none; stroke: #b0b0b0; stroke-width: 0.8; stroke-linecap: square"/>
     </g>
     <g id="line2d_16">
      <g>
       <use xlink:href="#md466d47075" x="47.72" y="185.86564" style="stroke: #000000; stroke-width: 0.8"/>
      </g>
     </g>
     <g id="text_9">
      <!-- 0.7 -->
      <g transform="translate(24.816875 189.664859) scale(0.1 -0.1)">
       <defs>
        <path id="DejaVuSans-37" d="M 525 4666 
L 3525 4666 
L 3525 4397 
L 1831 0 
L 1172 0 
L 2766 4134 
L 525 4134 
L 525 4666 
z
" transform="scale(0.015625)"/>
       </defs>
       <use xlink:href="#DejaVuSans-30"/>
       <use xlink:href="#DejaVuSans-2e" transform="translate(63.623047 0)"/>
       <use xlink:href="#DejaVuSans-37" transform="translate(95.410156 0)"/>
      </g>
     </g>
    </g>
    <g id="ytick_4">
     <g id="line2d_17">
      <path d="M 47.72 132.14376 
L 417.06 132.14376 
" clip-path="url(#p082a4fa186)" style="fill: none; stroke: #b0b0b0; stroke-width: 0.8; stroke-linecap: square"/>
     </g>
     <g id="line2d_18">
      <g>
       <use xlink:href="#md466d47075" x="47.72" y="132.14376" style="stroke: #000000; stroke-width: 0.8"/>
      </g>
     </g>
     <g id="text_10">
      <!-- 0.8 -->
      <g transform="translate(24.816875 135.942979) scale(0.1 -0.1)">
       <use xlink:href="#DejaVuSans-30"/>
       <use xlink:href="#DejaVuSans-2e" transform="translate(63.623047 0)"/>
       <use xlink:href="#DejaVuSans-38" transform="translate(95.410156 0)"/>
      </g>
     </g>
    </g>
    <g id="ytick_5">
     <g id="line2d_19">
      <path d="M 47.72 78.42188 
L 417.06 78.42188 
" clip-path="url(#p082a4fa186)" style="fill: none; stroke: #b0b0b0; stroke-width: 0.8; stroke-linecap: square"/>
     </g>
     <g id="line2d_20">
      <g>
       <use xlink:href="#md466d47075" x="47.72" y="78.42188" style="stroke: #000000; stroke-width: 0.8"/>
      </g>
     </g>
     <g id="text_11">
      <!-- 0.9 -->
      <g transform="translate(24.816875 82.221099) scale(0.1 -0.1)">
       <defs>
        <path id="DejaVuSans-39" d="M 703 97 
L 703 672 
Q 941 559 1184 500 
Q 1428 441 1663 441 
Q 2288 441 2617 861 
Q 2947 1281 2994 2138 
Q 2813 1869 2534 1725 
Q 2256 1581 1919 1581 
Q 1219 1581 811 2004 
Q 403 2428 403 3163 
Q 403 3881 828 4315 
Q 1253 4750 1959 4750 
Q 2769 4750 3195 4129 
Q 3622 3509 3622 2328 
Q 3622 1225 3098 567 
Q 2575 -91 1691 -91 
Q 1453 -91 1209 -44 
Q 966 3 703 97 
z
M 1959 2075 
Q 2384 2075 2632 2365 
Q 2881 2656 2881 3163 
Q 2881 3666 2632 3958 
Q 2384 4250 1959 4250 
Q 1534 4250 1286 3958 
Q 1038 3666 1038 3163 
Q 1038 2656 1286 2365 
Q 1534 2075 1959 2075 
z
" transform="scale(0.015625)"/>
       </defs>
       <use xlink:href="#DejaVuSans-30"/>
       <use xlink:href="#DejaVuSans-2e" transform="translate(63.623047 0)"/>
       <use xlink:href="#DejaVuSans-39" transform="translate(95.410156 0)"/>
      </g>
     </g>
    </g>
    <g id="ytick_6">
     <g id="line2d_21">
      <path d="M 47.72 24.7 
L 417.06 24.7 
" clip-path="url(#p082a4fa186)" style="fill: none; stroke: #b0b0b0; stroke-width: 0.8; stroke-linecap: square"/>
     </g>
     <g id="line2d_22">
      <g>
       <use xlink:href="#md466d47075" x="47.72" y="24.7" style="stroke: #000000; stroke-width: 0.8"/>
      </g>
     </g>
     <g id="text_12">
      <!-- 1.0 -->
      <g transform="translate(24.816875 28.499219) scale(0.1 -0.1)">
       <use xlink:href="#DejaVuSans-31"/>
       <use xlink:href="#DejaVuSans-2e" transform="translate(63.623047 0)"/>
       <use xlink:href="#DejaVuSans-30" transform="translate(95.410156 0)"/>
      </g>
     </g>
    </g>
    <g id="text_13">
     <!-- Weak convergence probability -->
     <g transform="translate(18.737188 239.466406) rotate(-90) scale(0.1 -0.1)">
      <defs>
       <path id="DejaVuSans-57" d="M 213 4666 
L 850 4666 
L 1831 722 
L 2809 4666 
L 3519 4666 
L 4500 722 
L 5478 4666 
L 6119 4666 
L 4947 0 
L 4153 0 
L 3169 4050 
L 2175 0 
L 1381 0 
L 213 4666 
z
" transform="scale(0.015625)"/>
       <path id="DejaVuSans-61" d="M 2194 1759 
Q 1497 1759 1228 1600 
Q 959 1441 959 1056 
Q 959 750 1161 570 
Q 1363 391 1709 391 
Q 2188 391 2477 730 
Q 2766 1069 2766 1631 
L 2766 1759 
L 2194 1759 
z
M 3341 1997 
L 3341 0 
L 2766 0 
L 2766 531 
Q 2569 213 2275 61 
Q 1981 -91 1556 -91 
Q 1019 -91 701 211 
Q 384 513 384 1019 
Q 384 1609 779 1909 
Q 1175 2209 1959 2209 
L 2766 2209 
L 2766 2266 
Q 2766 2663 2505 2880 
Q 2244 3097 1772 3097 
Q 1472 3097 1187 3025 
Q 903 2953 641 2809 
L 641 3341 
Q 956 3463 1253 3523 
Q 1550 3584 1831 3584 
Q 2591 3584 2966 3190 
Q 3341 2797 3341 1997 
z
" transform="scale(0.015625)"/>
       <path id="DejaVuSans-6b" d="M 581 4863 
L 1159 4863 
L 1159 1991 
L 2875 3500 
L 3609 3500 
L 1753 1863 
L 3688 0 
L 2938 0 
L 1159 1709 
L 1159 0 
L 581 0 
L 581 4863 
z
" transform="scale(0.015625)"/>
       <path id="DejaVuSans-63" d="M 3122 3366 
L 3122 2828 
Q 2878 2963 2633 3030 
Q 2388 3097 2138 3097 
Q 1578 3097 1268 2742 
Q 959 2388 959 1747 
Q 959 1106 1268 751 
Q 1578 397 2138 397 
Q 2388 397 2633 464 
Q 2878 531 3122 666 
L 3122 134 
Q 2881 22 2623 -34 
Q 2366 -91 2075 -91 
Q 1284 -91 818 406 
Q 353 903 353 1747 
Q 353 2603 823 3093 
Q 1294 3584 2113 3584 
Q 2378 3584 2631 3529 
Q 2884 3475 3122 3366 
z
" transform="scale(0.015625)"/>
       <path id="DejaVuSans-6f" d="M 1959 3097 
Q 1497 3097 1228 2736 
Q 959 2375 959 1747 
Q 959 1119 1226 758 
Q 1494 397 1959 397 
Q 2419 397 2687 759 
Q 2956 1122 2956 1747 
Q 2956 2369 2687 2733 
Q 2419 3097 1959 3097 
z
M 1959 3584 
Q 2709 3584 3137 3096 
Q 3566 2609 3566 1747 
Q 3566 888 3137 398 
Q 2709 -91 1959 -91 
Q 1206 -91 779 398 
Q 353 888 353 1747 
Q 353 2609 779 3096 
Q 1206 3584 1959 3584 
z
" transform="scale(0.015625)"/>
       <path id="DejaVuSans-76" d="M 191 3500 
L 800 3500 
L 1894 563 
L 2988 3500 
L 3597 3500 
L 2284 0 
L 1503 0 
L 191 3500 
z
" transform="scale(0.015625)"/>
       <path id="DejaVuSans-72" d="M 2631 2963 
Q 2534 3019 2420 3045 
Q 2306 3072 2169 3072 
Q 1681 3072 1420 2755 
Q 1159 2438 1159 1844 
L 1159 0 
L 581 0 
L 581 3500 
L 1159 3500 
L 1159 2956 
Q 1341 3275 1631 3429 
Q 1922 3584 2338 3584 
Q 2397 3584 2469 3576 
Q 2541 3569 2628 3553 
L 2631 2963 
z
" transform="scale(0.015625)"/>
       <path id="DejaVuSans-67" d="M 2906 1791 
Q 2906 2416 2648 2759 
Q 2391 3103 1925 3103 
Q 1463 3103 1205 2759 
Q 947 2416 947 1791 
Q 947 1169 1205 825 
Q 1463 481 1925 481 
Q 2391 481 2648 825 
Q 2906 1169 2906 1791 
z
M 3481 434 
Q 3481 -459 3084 -895 
Q 2688 -1331 1869 -1331 
Q 1566 -1331 1297 -1286 
Q 1028 -1241 775 -1147 
L 775 -588 
Q 1028 -725 1275 -790 
Q 1522 -856 1778 -856 
Q 2344 -856 2625 -561 
Q 2906 -266 2906 331 
L 2906 616 
Q 2728 306 2450 153 
Q 2172 0 1784 0 
Q 1141 0 747 490 
Q 353 981 353 1791 
Q 353 2603 747 3093 
Q 1141 3584 1784 3584 
Q 2172 3584 2450 3431 
Q 2728 3278 2906 2969 
L 2906 3500 
L 3481 3500 
L 3481 434 
z
" transform="scale(0.015625)"/>
       <path id="DejaVuSans-70" d="M 1159 525 
L 1159 -1331 
L 581 -1331 
L 581 3500 
L 1159 3500 
L 1159 2969 
Q 1341 3281 1617 3432 
Q 1894 3584 2278 3584 
Q 2916 3584 3314 3078 
Q 3713 2572 3713 1747 
Q 3713 922 3314 415 
Q 2916 -91 2278 -91 
Q 1894 -91 1617 61 
Q 1341 213 1159 525 
z
M 3116 1747 
Q 3116 2381 2855 2742 
Q 2594 3103 2138 3103 
Q 1681 3103 1420 2742 
Q 1159 2381 1159 1747 
Q 1159 1113 1420 752 
Q 1681 391 2138 391 
Q 2594 391 2855 752 
Q 3116 1113 3116 1747 
z
" transform="scale(0.015625)"/>
       <path id="DejaVuSans-74" d="M 1172 4494 
L 1172 3500 
L 2356 3500 
L 2356 3053 
L 1172 3053 
L 1172 1153 
Q 1172 725 1289 603 
Q 1406 481 1766 481 
L 2356 481 
L 2356 0 
L 1766 0 
Q 1100 0 847 248 
Q 594 497 594 1153 
L 594 3053 
L 172 3053 
L 172 3500 
L 594 3500 
L 594 4494 
L 1172 4494 
z
" transform="scale(0.015625)"/>
       <path id="DejaVuSans-79" d="M 2059 -325 
Q 1816 -950 1584 -1140 
Q 1353 -1331 966 -1331 
L 506 -1331 
L 506 -850 
L 844 -850 
Q 1081 -850 1212 -737 
Q 1344 -625 1503 -206 
L 1606 56 
L 191 3500 
L 800 3500 
L 1894 763 
L 2988 3500 
L 3597 3500 
L 2059 -325 
z
" transform="scale(0.015625)"/>
      </defs>
      <use xlink:href="#DejaVuSans-57"/>
      <use xlink:href="#DejaVuSans-65" transform="translate(93.001953 0)"/>
      <use xlink:href="#DejaVuSans-61" transform="translate(154.525391 0)"/>
      <use xlink:href="#DejaVuSans-6b" transform="translate(215.804688 0)"/>
      <use xlink:href="#DejaVuSans-20" transform="translate(273.714844 0)"/>
      <use xlink:href="#DejaVuSans-63" transform="translate(305.501953 0)"/>
      <use xlink:href="#DejaVuSans-6f" transform="translate(360.482422 0)"/>
      <use xlink:href="#DejaVuSans-6e" transform="translate(421.664062 0)"/>
      <use xlink:href="#DejaVuSans-76" transform="translate(485.042969 0)"/>
      <use xlink:href="#DejaVuSans-65" transform="translate(544.222656 0)"/>
      <use xlink:href="#DejaVuSans-72" transform="translate(605.746094 0)"/>
      <use xlink:href="#DejaVuSans-67" transform="translate(645.109375 0)"/>
      <use xlink:href="#DejaVuSans-65" transform="translate(708.585938 0)"/>
      <use xlink:href="#DejaVuSans-6e" transform="translate(770.109375 0)"/>
      <use xlink:href="#DejaVuSans-63" transform="translate(833.488281 0)"/>
      <use xlink:href="#DejaVuSans-65" transform="translate(888.46875 0)"/>
      <use xlink:href="#DejaVuSans-20" transform="translate(949.992188 0)"/>
      <use xlink:href="#DejaVuSans-70" transform="translate(981.779297 0)"/>
      <use xlink:href="#DejaVuSans-72" transform="translate(1045.255859 0)"/>
      <use xlink:href="#DejaVuSans-6f" transform="translate(1084.119141 0)"/>
      <use xlink:href="#DejaVuSans-62" transform="translate(1145.300781 0)"/>
      <use xlink:href="#DejaVuSans-61" transform="translate(1208.777344 0)"/>
      <use xlink:href="#DejaVuSans-62" transform="translate(1270.056641 0)"/>
      <use xlink:href="#DejaVuSans-69" transform="translate(1333.533203 0)"/>
      <use xlink:href="#DejaVuSans-6c" transform="translate(1361.316406 0)"/>
      <use xlink:href="#DejaVuSans-69" transform="translate(1389.099609 0)"/>
      <use xlink:href="#DejaVuSans-74" transform="translate(1416.882812 0)"/>
      <use xlink:href="#DejaVuSans-79" transform="translate(1456.091797 0)"/>
     </g>
    </g>
   </g>
   <g id="line2d_23">
    <path d="M 64.508182 285.788337 
L 101.815253 154.70695 
L 139.122323 91.85235 
L 176.429394 60.69366 
L 213.736465 44.039877 
L 251.043535 33.295501 
L 288.350606 28.99775 
L 325.657677 26.311656 
L 362.964747 25.774438 
L 400.271818 24.7 
" clip-path="url(#p082a4fa186)" style="fill: none; stroke: #1f77b4; stroke-width: 1.5; stroke-linecap: square"/>
    <defs>
     <path id="m833d9c0b78" d="M 0 3 
C 0.795609 3 1.55874 2.683901 2.12132 2.12132 
C 2.683901 1.55874 3 0.795609 3 0 
C 3 -0.795609 2.683901 -1.55874 2.12132 -2.12132 
C 1.55874 -2.683901 0.795609 -3 0 -3 
C -0.795609 -3 -1.55874 -2.683901 -2.12132 -2.12132 
C -2.683901 -1.55874 -3 -0.795609 -3 0 
C -3 0.795609 -2.683901 1.55874 -2.12132 2.12132 
C -1.55874 2.683901 -0.795609 3 0 3 
z
" style="stroke: #1f77b4"/>
    </defs>
    <g clip-path="url(#p082a4fa186)">
     <use xlink:href="#m833d9c0b78" x="64.508182" y="285.788337" style="fill: #1f77b4; stroke: #1f77b4"/>
     <use xlink:href="#m833d9c0b78" x="101.815253" y="154.70695" style="fill: #1f77b4; stroke: #1f77b4"/>
     <use xlink:href="#m833d9c0b78" x="139.122323" y="91.85235" style="fill: #1f77b4; stroke: #1f77b4"/>
     <use xlink:href="#m833d9c0b78" x="176.429394" y="60.69366" style="fill: #1f77b4; stroke: #1f77b4"/>
     <use xlink:href="#m833d9c0b78" x="213.736465" y="44.039877" style="fill: #1f77b4; stroke: #1f77b4"/>
     <use xlink:href="#m833d9c0b78" x="251.043535" y="33.295501" style="fill: #1f77b4; stroke: #1f77b4"/>
     <use xlink:href="#m833d9c0b78" x="288.350606" y="28.99775" style="fill: #1f77b4; stroke: #1f77b4"/>
     <use xlink:href="#m833d9c0b78" x="325.657677" y="26.311656" style="fill: #1f77b4; stroke: #1f77b4"/>
     <use xlink:href="#m833d9c0b78" x="362.964747" y="25.774438" style="fill: #1f77b4; stroke: #1f77b4"/>
     <use xlink:href="#m833d9c0b78" x="400.271818" y="24.7" style="fill: #1f77b4; stroke: #1f77b4"/>
    </g>
   </g>
   <g id="line2d_24">
    <path d="M 64.508182 285.788337 
L 101.815253 151.588932 
L 139.122323 86.368021 
L 176.429394 54.670658 
L 213.736465 39.26574 
L 251.043535 31.77895 
L 288.350606 28.140369 
L 325.657677 26.37202 
L 362.964747 25.512602 
L 400.271818 25.094924 
" clip-path="url(#p082a4fa186)" style="fill: none; stroke-dasharray: 5.55,2.4; stroke-dashoffset: 0; stroke: #ff7f0e; stroke-width: 1.5"/>
    <defs>
     <path id="md6d55f817a" d="M -3 3 
L 3 3 
L 3 -3 
L -3 -3 
z
" style="stroke: #ff7f0e; stroke-linejoin: miter"/>
    </defs>
    <g clip-path="url(#p082a4fa186)">
     <use xlink:href="#md6d55f817a" x="64.508182" y="285.788337" style="fill: #ff7f0e; stroke: #ff7f0e; stroke-linejoin: miter"/>
     <use xlink:href="#md6d55f817a" x="101.815253" y="151.588932" style="fill: #ff7f0e; stroke: #ff7f0e; stroke-linejoin: miter"/>
     <use xlink:href="#md6d55f817a" x="139.122323" y="86.368021" style="fill: #ff7f0e; stroke: #ff7f0e; stroke-linejoin: miter"/>
     <use xlink:href="#md6d55f817a" x="176.429394" y="54.670658" style="fill: #ff7f0e; stroke: #ff7f0e; stroke-linejoin: miter"/>
     <use xlink:href="#md6d55f817a" x="213.736465" y="39.26574" style="fill: #ff7f0e; stroke: #ff7f0e; stroke-linejoin: miter"/>
     <use xlink:href="#md6d55f817a" x="251.043535" y="31.77895" style="fill: #ff7f0e; stroke: #ff7f0e; stroke-linejoin: miter"/>
     <use xlink:href="#md6d55f817a" x="288.350606" y="28.140369" style="fill: #ff7f0e; stroke: #ff7f0e; stroke-linejoin: miter"/>
     <use xlink:href="#md6d55f817a" x="325.657677" y="26.37202" style="fill: #ff7f0e; stroke: #ff7f0e; stroke-linejoin: miter"/>
     <use xlink:href="#md6d55f817a" x="362.964747" y="25.512602" style="fill: #ff7f0e; stroke: #ff7f0e; stroke-linejoin: miter"/>
     <use xlink:href="#md6d55f817a" x="400.271818" y="25.094924" style="fill: #ff7f0e; stroke: #ff7f0e; stroke-linejoin: miter"/>
    </g>
   </g>
   <g id="patch_3">
    <path d="M 47.72 316.6 
L 47.72 10.8 
" style="fill: none; stroke: #000000; stroke-width: 0.8; stroke-linejoin: miter; stroke-linecap: square"/>
   </g>
   <g id="patch_4">
    <path d="M 417.06 316.6 
L 417.06 10.8 
" style="fill: none; stroke: #000000; stroke-width: 0.8; stroke-linejoin: miter; stroke-linecap: square"/>
   </g>
   <g id="patch_5">
    <path d="M 47.72 316.6 
L 417.06 316.6 
" style="fill: none; stroke: #000000; stroke-width: 0.8; stroke-linejoin: miter; stroke-linecap: square"/>
   </g>
   <g id="patch_6">
    <path d="M 47.72 10.8 
L 417.06 10.8 
" style="fill: none; stroke: #000000; stroke-width: 0.8; stroke-linejoin: miter; stroke-linecap: square"/>
   </g>
   <g id="legend_1">
    <g id="patch_7">
     <path d="M 54.72 50.6 
L 178.72 50.6 
Q 180.72 50.6 180.72 48.6 
L 180.72 17.8 
Q 180.72 15.8 178.72 15.8 
L 54.72 15.8 
Q 52.72 15.8 52.72 17.8 
L 52.72 48.6 
Q 52.72 50.6 54.72 50.6 
z
" style="fill: #ffffff; opacity: 0.8; stroke: #cccccc; stroke-linejoin: miter"/>
    </g>
    <g id="line2d_25">
     <path d="M 56.72 23.9 
L 66.72 23.9 
L 76.72 23.9 
" style="fill: none; stroke: #1f77b4; stroke-width: 1.5; stroke-linecap: square"/>
     <g>
      <use xlink:href="#m833d9c0b78" x="66.72" y="23.9" style="fill: #1f77b4; stroke: #1f77b4"/>
     </g>
    </g>
    <g id="text_14">
     <!-- empirical $p_{weak}$ -->
     <g transform="translate(84.72 27.4) scale(0.1 -0.1)">
      <defs>
       <path id="DejaVuSans-Oblique-70" d="M 3175 2156 
Q 3175 2616 2975 2859 
Q 2775 3103 2400 3103 
Q 2144 3103 1911 2972 
Q 1678 2841 1497 2591 
Q 1319 2344 1212 1994 
Q 1106 1644 1106 1300 
Q 1106 863 1306 627 
Q 1506 391 1875 391 
Q 2147 391 2380 519 
Q 2613 647 2778 891 
Q 2956 1147 3065 1494 
Q 3175 1841 3175 2156 
z
M 1394 2969 
Q 1625 3272 1939 3428 
Q 2253 3584 2638 3584 
Q 3175 3584 3472 3232 
Q 3769 2881 3769 2247 
Q 3769 1728 3584 1258 
Q 3400 788 3053 416 
Q 2822 169 2531 39 
Q 2241 -91 1919 -91 
Q 1547 -91 1294 64 
Q 1041 219 916 525 
L 556 -1331 
L -19 -1331 
L 922 3500 
L 1497 3500 
L 1394 2969 
z
" transform="scale(0.015625)"/>
       <path id="DejaVuSans-Oblique-77" d="M 544 3500 
L 1113 3500 
L 1259 684 
L 2566 3500 
L 3231 3500 
L 3425 684 
L 4666 3500 
L 5241 3500 
L 3641 0 
L 2969 0 
L 2797 2900 
L 1459 0 
L 781 0 
L 544 3500 
z
" transform="scale(0.015625)"/>
       <path id="DejaVuSans-Oblique-65" d="M 3078 2063 
Q 3088 2113 3092 2166 
Q 3097 2219 3097 2272 
Q 3097 2653 2873 2875 
Q 2650 3097 2266 3097 
Q 1838 3097 1509 2826 
Q 1181 2556 1013 2059 
L 3078 2063 
z
M 3578 1613 
L 903 1613 
Q 884 1494 878 1425 
Q 872 1356 872 1306 
Q 872 872 1139 634 
Q 1406 397 1894 397 
Q 2269 397 2603 481 
Q 2938 566 3225 728 
L 3116 159 
Q 2806 34 2476 -28 
Q 2147 -91 1806 -91 
Q 1078 -91 686 257 
Q 294 606 294 1247 
Q 294 1794 489 2264 
Q 684 2734 1063 3103 
Q 1306 3334 1642 3459 
Q 1978 3584 2356 3584 
Q 2950 3584 3301 3228 
Q 3653 2872 3653 2272 
Q 3653 2128 3634 1964 
Q 3616 1800 3578 1613 
z
" transform="scale(0.015625)"/>
       <path id="DejaVuSans-Oblique-61" d="M 3438 1997 
L 3047 0 
L 2472 0 
L 2578 531 
Q 2325 219 2001 64 
Q 1678 -91 1281 -91 
Q 834 -91 548 182 
Q 263 456 263 884 
Q 263 1497 752 1853 
Q 1241 2209 2100 2209 
L 2900 2209 
L 2931 2363 
Q 2938 2388 2941 2417 
Q 2944 2447 2944 2509 
Q 2944 2788 2717 2942 
Q 2491 3097 2081 3097 
Q 1800 3097 1504 3025 
Q 1209 2953 897 2809 
L 997 3341 
Q 1322 3463 1633 3523 
Q 1944 3584 2234 3584 
Q 2853 3584 3176 3315 
Q 3500 3047 3500 2534 
Q 3500 2431 3484 2292 
Q 3469 2153 3438 1997 
z
M 2816 1759 
L 2241 1759 
Q 1534 1759 1195 1570 
Q 856 1381 856 984 
Q 856 709 1029 553 
Q 1203 397 1509 397 
Q 1978 397 2328 733 
Q 2678 1069 2791 1631 
L 2816 1759 
z
" transform="scale(0.015625)"/>
       <path id="DejaVuSans-Oblique-6b" d="M 1172 4863 
L 1747 4863 
L 1197 2028 
L 3169 3500 
L 3916 3500 
L 1716 1825 
L 3322 0 
L 2625 0 
L 1131 1709 
L 800 0 
L 225 0 
L 1172 4863 
z
" transform="scale(0.015625)"/>
      </defs>
      <use xlink:href="#DejaVuSans-65" transform="translate(0 0.015625)"/>
      <use xlink:href="#DejaVuSans-6d" transform="translate(61.523438 0.015625)"/>
      <use xlink:href="#DejaVuSans-70" transform="translate(158.935547 0.015625)"/>
      <use xlink:href="#DejaVuSans-69" transform="translate(222.412109 0.015625)"/>
      <use xlink:href="#DejaVuSans-72" transform="translate(250.195312 0.015625)"/>
      <use xlink:href="#DejaVuSans-69" transform="translate(291.308594 0.015625)"/>
      <use xlink:href="#DejaVuSans-63" transform="translate(319.091797 0.015625)"/>
      <use xlink:href="#DejaVuSans-61" transform="translate(374.072266 0.015625)"/>
      <use xlink:href="#DejaVuSans-6c" transform="translate(435.351562 0.015625)"/>
      <use xlink:href="#DejaVuSans-20" transform="translate(463.134766 0.015625)"/>
      <use xlink:href="#DejaVuSans-Oblique-70" transform="translate(494.921875 0.015625)"/>
      <use xlink:href="#DejaVuSans-Oblique-77" transform="translate(558.398438 -16.390625) scale(0.7)"/>
      <use xlink:href="#DejaVuSans-Oblique-65" transform="translate(615.649414 -16.390625) scale(0.7)"/>
      <use xlink:href="#DejaVuSans-Oblique-61" transform="translate(658.71582 -16.390625) scale(0.7)"/>
      <use xlink:href="#DejaVuSans-Oblique-6b" transform="translate(701.611328 -16.390625) scale(0.7)"/>
     </g>
    </g>
    <g id="line2d_26">
     <path d="M 56.72 40 
L 66.72 40 
L 76.72 40 
" style="fill: none; stroke-dasharray: 5.55,2.4; stroke-dashoffset: 0; stroke: #ff7f0e; stroke-width: 1.5"/>
     <g>
      <use xlink:href="#md6d55f817a" x="66.72" y="40" style="fill: #ff7f0e; stroke: #ff7f0e; stroke-linejoin: miter"/>
     </g>
    </g>
    <g id="text_15">
     <!-- $1 - (1 - p_{weak,dqn})^K$ -->
     <g transform="translate(84.72 43.5) scale(0.1 -0.1)">
      <defs>
       <path id="DejaVuSans-2212" d="M 678 2272 
L 4684 2272 
L 4684 1741 
L 678 1741 
L 678 2272 
z
" transform="scale(0.015625)"/>
       <path id="DejaVuSans-2c" d="M 750 794 
L 1409 794 
L 1409 256 
L 897 -744 
L 494 -744 
L 750 256 
L 750 794 
z
" transform="scale(0.015625)"/>
       <path id="DejaVuSans-Oblique-64" d="M 2675 525 
Q 2444 222 2128 65 
Q 1813 -91 1428 -91 
Q 903 -91 598 267 
Q 294 625 294 1247 
Q 294 1766 478 2236 
Q 663 2706 1013 3078 
Q 1244 3325 1534 3454 
Q 1825 3584 2144 3584 
Q 2481 3584 2739 3421 
Q 2997 3259 3138 2956 
L 3513 4863 
L 4091 4863 
L 3144 0 
L 2566 0 
L 2675 525 
z
M 891 1350 
Q 891 897 1095 644 
Q 1300 391 1663 391 
Q 1931 391 2161 520 
Q 2391 650 2566 903 
Q 2750 1166 2856 1509 
Q 2963 1853 2963 2188 
Q 2963 2622 2758 2865 
Q 2553 3109 2194 3109 
Q 1922 3109 1687 2981 
Q 1453 2853 1288 2613 
Q 1106 2353 998 2009 
Q 891 1666 891 1350 
z
" transform="scale(0.015625)"/>
       <path id="DejaVuSans-Oblique-71" d="M 2669 525 
Q 2438 222 2123 65 
Q 1809 -91 1428 -91 
Q 897 -91 595 267 
Q 294 625 294 1253 
Q 294 1759 480 2231 
Q 666 2703 1013 3078 
Q 1238 3322 1530 3453 
Q 1822 3584 2144 3584 
Q 2531 3584 2781 3431 
Q 3031 3278 3144 2969 
L 3244 3494 
L 3822 3494 
L 2888 -1319 
L 2309 -1319 
L 2669 525 
z
M 891 1338 
Q 891 875 1084 633 
Q 1278 391 1644 391 
Q 2188 391 2572 911 
Q 2956 1431 2956 2175 
Q 2956 2625 2757 2864 
Q 2559 3103 2188 3103 
Q 1916 3103 1684 2976 
Q 1453 2850 1281 2606 
Q 1100 2350 995 2006 
Q 891 1663 891 1338 
z
" transform="scale(0.015625)"/>
       <path id="DejaVuSans-Oblique-6e" d="M 3566 2113 
L 3156 0 
L 2578 0 
L 2988 2091 
Q 3016 2238 3031 2350 
Q 3047 2463 3047 2528 
Q 3047 2791 2881 2937 
Q 2716 3084 2419 3084 
Q 1956 3084 1622 2776 
Q 1288 2469 1184 1941 
L 800 0 
L 225 0 
L 903 3500 
L 1478 3500 
L 1363 2950 
Q 1603 3253 1940 3418 
Q 2278 3584 2650 3584 
Q 3113 3584 3367 3334 
Q 3622 3084 3622 2631 
Q 3622 2519 3608 2391 
Q 3594 2263 3566 2113 
z
" transform="scale(0.015625)"/>
      </defs>
      <use xlink:href="#DejaVuSans-31" transform="translate(0 0.684375)"/>
      <use xlink:href="#DejaVuSans-2212" transform="translate(83.105469 0.684375)"/>
      <use xlink:href="#DejaVuSans-28" transform="translate(186.376953 0.684375)"/>
      <use xlink:href="#DejaVuSans-31" transform="translate(225.390625 0.684375)"/>
      <use xlink:href="#DejaVuSans-2212" transform="translate(308.496094 0.684375)"/>
      <use xlink:href="#DejaVuSans-Oblique-70" transform="translate(411.767578 0.684375)"/>
      <use xlink:href="#DejaVuSans-Oblique-77" transform="translate(475.244141 -15.721875) scale(0.7)"/>
      <use xlink:href="#DejaVuSans-Oblique-65" transform="translate(532.495117 -15.721875) scale(0.7)"/>
      <use xlink:href="#DejaVuSans-Oblique-61" transform="translate(575.561523 -15.721875) scale(0.7)"/>
      <use xlink:href="#DejaVuSans-Oblique-6b" transform="translate(618.457031 -15.721875) scale(0.7)"/>
      <use xlink:href="#DejaVuSans-2c" transform="translate(658.994141 -15.721875) scale(0.7)"/>
      <use xlink:href="#DejaVuSans-Oblique-64" transform="translate(694.882812 -15.721875) scale(0.7)"/>
      <use xlink:href="#DejaVuSans-Oblique-71" transform="translate(739.316406 -15.721875) scale(0.7)"/>
      <use xlink:href="#DejaVuSans-Oblique-6e" transform="translate(783.75 -15.721875) scale(0.7)"/>
      <use xlink:href="#DejaVuSans-29" transform="translate(830.849609 0.684375)"/>
      <use xlink:href="#DejaVuSans-Oblique-4b" transform="translate(870.820312 38.965625) scale(0.7)"/>
     </g>
    </g>
   </g>
  </g>
  <g id="axes_2">
   <g id="patch_8">
    <path d="M 483.86 316.6 
L 853.2 316.6 
L 853.2 10.8 
L 483.86 10.8 
z
" style="fill: #ffffff"/>
   </g>
   <g id="FillBetweenPolyCollection_2">
    <path d="M 500.648182 312.386272 
L 500.648182 318.121211 
L 537.955253 289.286286 
L 575.262323 262.439077 
L 612.569394 237.796286 
L 649.876465 214.215408 
L 687.183535 185.467367 
L 724.490606 163.392806 
L 761.797677 137.466636 
L 799.104747 128.911636 
L 836.411818 99.188807 
L 836.411818 -2899454.805704 
L 836.411818 -2899454.805704 
L 799.104747 -21.269714 
L 761.797677 20.258471 
L 724.490606 96.43451 
L 687.183535 139.5937 
L 649.876465 184.577782 
L 612.569394 216.655765 
L 575.262323 247.566228 
L 537.955253 279.391543 
L 500.648182 312.386272 
z
" clip-path="url(#p8ea9331b06)" style="fill: #1f77b4; fill-opacity: 0.3"/>
   </g>
   <g id="matplotlib.axis_3">
    <g id="xtick_6">
     <g id="line2d_27">
      <path d="M 537.955253 316.6 
L 537.955253 10.8 
" clip-path="url(#p8ea9331b06)" style="fill: none; stroke: #b0b0b0; stroke-width: 0.8; stroke-linecap: square"/>
     </g>
     <g id="line2d_28">
      <g>
       <use xlink:href="#m7f684beeb6" x="537.955253" y="316.6" style="stroke: #000000; stroke-width: 0.8"/>
      </g>
     </g>
     <g id="text_16">
      <!-- 2 -->
      <g transform="translate(534.774003 331.198438) scale(0.1 -0.1)">
       <use xlink:href="#DejaVuSans-32"/>
      </g>
     </g>
    </g>
    <g id="xtick_7">
     <g id="line2d_29">
      <path d="M 612.569394 316.6 
L 612.569394 10.8 
" clip-path="url(#p8ea9331b06)" style="fill: none; stroke: #b0b0b0; stroke-width: 0.8; stroke-linecap: square"/>
     </g>
     <g id="line2d_30">
      <g>
       <use xlink:href="#m7f684beeb6" x="612.569394" y="316.6" style="stroke: #000000; stroke-width: 0.8"/>
      </g>
     </g>
     <g id="text_17">
      <!-- 4 -->
      <g transform="translate(609.388144 331.198438) scale(0.1 -0.1)">
       <use xlink:href="#DejaVuSans-34"/>
      </g>
     </g>
    </g>
    <g id="xtick_8">
     <g id="line2d_31">
      <path d="M 687.183535 316.6 
L 687.183535 10.8 
" clip-path="url(#p8ea9331b06)" style="fill: none; stroke: #b0b0b0; stroke-width: 0.8; stroke-linecap: square"/>
     </g>
     <g id="line2d_32">
      <g>
       <use xlink:href="#m7f684beeb6" x="687.183535" y="316.6" style="stroke: #000000; stroke-width: 0.8"/>
      </g>
     </g>
     <g id="text_18">
      <!-- 6 -->
      <g transform="translate(684.002285 331.198438) scale(0.1 -0.1)">
       <use xlink:href="#DejaVuSans-36"/>
      </g>
     </g>
    </g>
    <g id="xtick_9">
     <g id="line2d_33">
      <path d="M 761.797677 316.6 
L 761.797677 10.8 
" clip-path="url(#p8ea9331b06)" style="fill: none; stroke: #b0b0b0; stroke-width: 0.8; stroke-linecap: square"/>
     </g>
     <g id="line2d_34">
      <g>
       <use xlink:href="#m7f684beeb6" x="761.797677" y="316.6" style="stroke: #000000; stroke-width: 0.8"/>
      </g>
     </g>
     <g id="text_19">
      <!-- 8 -->
      <g transform="translate(758.616427 331.198438) scale(0.1 -0.1)">
       <use xlink:href="#DejaVuSans-38"/>
      </g>
     </g>
    </g>
    <g id="xtick_10">
     <g id="line2d_35">
      <path d="M 836.411818 316.6 
L 836.411818 10.8 
" clip-path="url(#p8ea9331b06)" style="fill: none; stroke: #b0b0b0; stroke-width: 0.8; stroke-linecap: square"/>
     </g>
     <g id="line2d_36">
      <g>
       <use xlink:href="#m7f684beeb6" x="836.411818" y="316.6" style="stroke: #000000; stroke-width: 0.8"/>
      </g>
     </g>
     <g id="text_20">
      <!-- 10 -->
      <g transform="translate(830.049318 331.198438) scale(0.1 -0.1)">
       <use xlink:href="#DejaVuSans-31"/>
       <use xlink:href="#DejaVuSans-30" transform="translate(63.623047 0)"/>
      </g>
     </g>
    </g>
    <g id="text_21">
     <!-- $K$ (ensemble size) -->
     <g transform="translate(624.03 344.876563) scale(0.1 -0.1)">
      <use xlink:href="#DejaVuSans-Oblique-4b" transform="translate(0 0.015625)"/>
      <use xlink:href="#DejaVuSans-20" transform="translate(65.576172 0.015625)"/>
      <use xlink:href="#DejaVuSans-28" transform="translate(97.363281 0.015625)"/>
      <use xlink:href="#DejaVuSans-65" transform="translate(136.376953 0.015625)"/>
      <use xlink:href="#DejaVuSans-6e" transform="translate(197.900391 0.015625)"/>
      <use xlink:href="#DejaVuSans-73" transform="translate(261.279297 0.015625)"/>
      <use xlink:href="#DejaVuSans-65" transform="translate(313.378906 0.015625)"/>
      <use xlink:href="#DejaVuSans-6d" transform="translate(374.902344 0.015625)"/>
      <use xlink:href="#DejaVuSans-62" transform="translate(472.314453 0.015625)"/>
      <use xlink:href="#DejaVuSans-6c" transform="translate(535.791016 0.015625)"/>
      <use xlink:href="#DejaVuSans-65" transform="translate(563.574219 0.015625)"/>
      <use xlink:href="#DejaVuSans-20" transform="translate(625.097656 0.015625)"/>
      <use xlink:href="#DejaVuSans-73" transform="translate(656.884766 0.015625)"/>
      <use xlink:href="#DejaVuSans-69" transform="translate(708.984375 0.015625)"/>
      <use xlink:href="#DejaVuSans-7a" transform="translate(736.767578 0.015625)"/>
      <use xlink:href="#DejaVuSans-65" transform="translate(789.257812 0.015625)"/>
      <use xlink:href="#DejaVuSans-29" transform="translate(850.78125 0.015625)"/>
     </g>
    </g>
   </g>
   <g id="matplotlib.axis_4">
    <g id="ytick_7">
     <g id="line2d_37">
      <path d="M 483.86 293.986217 
L 853.2 293.986217 
" clip-path="url(#p8ea9331b06)" style="fill: none; stroke: #b0b0b0; stroke-width: 0.8; stroke-linecap: square"/>
     </g>
     <g id="line2d_38">
      <g>
       <use xlink:href="#md466d47075" x="483.86" y="293.986217" style="stroke: #000000; stroke-width: 0.8"/>
      </g>
     </g>
     <g id="text_22">
      <!-- 0.7000 -->
      <g transform="translate(441.869375 297.785436) scale(0.1 -0.1)">
       <use xlink:href="#DejaVuSans-30"/>
       <use xlink:href="#DejaVuSans-2e" transform="translate(63.623047 0)"/>
       <use xlink:href="#DejaVuSans-37" transform="translate(95.410156 0)"/>
       <use xlink:href="#DejaVuSans-30" transform="translate(159.033203 0)"/>
       <use xlink:href="#DejaVuSans-30" transform="translate(222.65625 0)"/>
       <use xlink:href="#DejaVuSans-30" transform="translate(286.279297 0)"/>
      </g>
     </g>
    </g>
    <g id="ytick_8">
     <g id="line2d_39">
      <path d="M 483.86 263.301227 
L 853.2 263.301227 
" clip-path="url(#p8ea9331b06)" style="fill: none; stroke: #b0b0b0; stroke-width: 0.8; stroke-linecap: square"/>
     </g>
     <g id="line2d_40">
      <g>
       <use xlink:href="#md466d47075" x="483.86" y="263.301227" style="stroke: #000000; stroke-width: 0.8"/>
      </g>
     </g>
     <g id="text_23">
      <!-- 0.8500 -->
      <g transform="translate(441.869375 267.100445) scale(0.1 -0.1)">
       <use xlink:href="#DejaVuSans-30"/>
       <use xlink:href="#DejaVuSans-2e" transform="translate(63.623047 0)"/>
       <use xlink:href="#DejaVuSans-38" transform="translate(95.410156 0)"/>
       <use xlink:href="#DejaVuSans-35" transform="translate(159.033203 0)"/>
       <use xlink:href="#DejaVuSans-30" transform="translate(222.65625 0)"/>
       <use xlink:href="#DejaVuSans-30" transform="translate(286.279297 0)"/>
      </g>
     </g>
    </g>
    <g id="ytick_9">
     <g id="line2d_41">
      <path d="M 483.86 235.473297 
L 853.2 235.473297 
" clip-path="url(#p8ea9331b06)" style="fill: none; stroke: #b0b0b0; stroke-width: 0.8; stroke-linecap: square"/>
     </g>
     <g id="line2d_42">
      <g>
       <use xlink:href="#md466d47075" x="483.86" y="235.473297" style="stroke: #000000; stroke-width: 0.8"/>
      </g>
     </g>
     <g id="text_24">
      <!-- 0.9200 -->
      <g transform="translate(441.869375 239.272516) scale(0.1 -0.1)">
       <use xlink:href="#DejaVuSans-30"/>
       <use xlink:href="#DejaVuSans-2e" transform="translate(63.623047 0)"/>
       <use xlink:href="#DejaVuSans-39" transform="translate(95.410156 0)"/>
       <use xlink:href="#DejaVuSans-32" transform="translate(159.033203 0)"/>
       <use xlink:href="#DejaVuSans-30" transform="translate(222.65625 0)"/>
       <use xlink:href="#DejaVuSans-30" transform="translate(286.279297 0)"/>
      </g>
     </g>
    </g>
    <g id="ytick_10">
     <g id="line2d_43">
      <path d="M 483.86 204.788306 
L 853.2 204.788306 
" clip-path="url(#p8ea9331b06)" style="fill: none; stroke: #b0b0b0; stroke-width: 0.8; stroke-linecap: square"/>
     </g>
     <g id="line2d_44">
      <g>
       <use xlink:href="#md466d47075" x="483.86" y="204.788306" style="stroke: #000000; stroke-width: 0.8"/>
      </g>
     </g>
     <g id="text_25">
      <!-- 0.9600 -->
      <g transform="translate(441.869375 208.587525) scale(0.1 -0.1)">
       <use xlink:href="#DejaVuSans-30"/>
       <use xlink:href="#DejaVuSans-2e" transform="translate(63.623047 0)"/>
       <use xlink:href="#DejaVuSans-39" transform="translate(95.410156 0)"/>
       <use xlink:href="#DejaVuSans-36" transform="translate(159.033203 0)"/>
       <use xlink:href="#DejaVuSans-30" transform="translate(222.65625 0)"/>
       <use xlink:href="#DejaVuSans-30" transform="translate(286.279297 0)"/>
      </g>
     </g>
    </g>
    <g id="ytick_11">
     <g id="line2d_45">
      <path d="M 483.86 174.103315 
L 853.2 174.103315 
" clip-path="url(#p8ea9331b06)" style="fill: none; stroke: #b0b0b0; stroke-width: 0.8; stroke-linecap: square"/>
     </g>
     <g id="line2d_46">
      <g>
       <use xlink:href="#md466d47075" x="483.86" y="174.103315" style="stroke: #000000; stroke-width: 0.8"/>
      </g>
     </g>
     <g id="text_26">
      <!-- 0.9800 -->
      <g transform="translate(441.869375 177.902534) scale(0.1 -0.1)">
       <use xlink:href="#DejaVuSans-30"/>
       <use xlink:href="#DejaVuSans-2e" transform="translate(63.623047 0)"/>
       <use xlink:href="#DejaVuSans-39" transform="translate(95.410156 0)"/>
       <use xlink:href="#DejaVuSans-38" transform="translate(159.033203 0)"/>
       <use xlink:href="#DejaVuSans-30" transform="translate(222.65625 0)"/>
       <use xlink:href="#DejaVuSans-30" transform="translate(286.279297 0)"/>
      </g>
     </g>
    </g>
    <g id="ytick_12">
     <g id="line2d_47">
      <path d="M 483.86 143.418324 
L 853.2 143.418324 
" clip-path="url(#p8ea9331b06)" style="fill: none; stroke: #b0b0b0; stroke-width: 0.8; stroke-linecap: square"/>
     </g>
     <g id="line2d_48">
      <g>
       <use xlink:href="#md466d47075" x="483.86" y="143.418324" style="stroke: #000000; stroke-width: 0.8"/>
      </g>
     </g>
     <g id="text_27">
      <!-- 0.9900 -->
      <g transform="translate(441.869375 147.217543) scale(0.1 -0.1)">
       <use xlink:href="#DejaVuSans-30"/>
       <use xlink:href="#DejaVuSans-2e" transform="translate(63.623047 0)"/>
       <use xlink:href="#DejaVuSans-39" transform="translate(95.410156 0)"/>
       <use xlink:href="#DejaVuSans-39" transform="translate(159.033203 0)"/>
       <use xlink:href="#DejaVuSans-30" transform="translate(222.65625 0)"/>
       <use xlink:href="#DejaVuSans-30" transform="translate(286.279297 0)"/>
      </g>
     </g>
    </g>
    <g id="ytick_13">
     <g id="line2d_49">
      <path d="M 483.86 112.733333 
L 853.2 112.733333 
" clip-path="url(#p8ea9331b06)" style="fill: none; stroke: #b0b0b0; stroke-width: 0.8; stroke-linecap: square"/>
     </g>
     <g id="line2d_50">
      <g>
       <use xlink:href="#md466d47075" x="483.86" y="112.733333" style="stroke: #000000; stroke-width: 0.8"/>
      </g>
     </g>
     <g id="text_28">
      <!-- 0.9950 -->
      <g transform="translate(441.869375 116.532552) scale(0.1 -0.1)">
       <use xlink:href="#DejaVuSans-30"/>
       <use xlink:href="#DejaVuSans-2e" transform="translate(63.623047 0)"/>
       <use xlink:href="#DejaVuSans-39" transform="translate(95.410156 0)"/>
       <use xlink:href="#DejaVuSans-39" transform="translate(159.033203 0)"/>
       <use xlink:href="#DejaVuSans-35" transform="translate(222.65625 0)"/>
       <use xlink:href="#DejaVuSans-30" transform="translate(286.279297 0)"/>
      </g>
     </g>
    </g>
    <g id="ytick_14">
     <g id="line2d_51">
      <path d="M 483.86 82.048342 
L 853.2 82.048342 
" clip-path="url(#p8ea9331b06)" style="fill: none; stroke: #b0b0b0; stroke-width: 0.8; stroke-linecap: square"/>
     </g>
     <g id="line2d_52">
      <g>
       <use xlink:href="#md466d47075" x="483.86" y="82.048342" style="stroke: #000000; stroke-width: 0.8"/>
      </g>
     </g>
     <g id="text_29">
      <!-- 0.9975 -->
      <g transform="translate(441.869375 85.847561) scale(0.1 -0.1)">
       <use xlink:href="#DejaVuSans-30"/>
       <use xlink:href="#DejaVuSans-2e" transform="translate(63.623047 0)"/>
       <use xlink:href="#DejaVuSans-39" transform="translate(95.410156 0)"/>
       <use xlink:href="#DejaVuSans-39" transform="translate(159.033203 0)"/>
       <use xlink:href="#DejaVuSans-37" transform="translate(222.65625 0)"/>
       <use xlink:href="#DejaVuSans-35" transform="translate(286.279297 0)"/>
      </g>
     </g>
    </g>
    <g id="ytick_15">
     <g id="line2d_53">
      <path d="M 483.86 41.484991 
L 853.2 41.484991 
" clip-path="url(#p8ea9331b06)" style="fill: none; stroke: #b0b0b0; stroke-width: 0.8; stroke-linecap: square"/>
     </g>
     <g id="line2d_54">
      <g>
       <use xlink:href="#md466d47075" x="483.86" y="41.484991" style="stroke: #000000; stroke-width: 0.8"/>
      </g>
     </g>
     <g id="text_30">
      <!-- 0.9990 -->
      <g transform="translate(441.869375 45.28421) scale(0.1 -0.1)">
       <use xlink:href="#DejaVuSans-30"/>
       <use xlink:href="#DejaVuSans-2e" transform="translate(63.623047 0)"/>
       <use xlink:href="#DejaVuSans-39" transform="translate(95.410156 0)"/>
       <use xlink:href="#DejaVuSans-39" transform="translate(159.033203 0)"/>
       <use xlink:href="#DejaVuSans-39" transform="translate(222.65625 0)"/>
       <use xlink:href="#DejaVuSans-30" transform="translate(286.279297 0)"/>
      </g>
     </g>
    </g>
    <g id="text_31">
     <!-- Weak convergence log probability -->
     <g transform="translate(435.789687 248.678125) rotate(-90) scale(0.1 -0.1)">
      <use xlink:href="#DejaVuSans-57"/>
      <use xlink:href="#DejaVuSans-65" transform="translate(93.001953 0)"/>
      <use xlink:href="#DejaVuSans-61" transform="translate(154.525391 0)"/>
      <use xlink:href="#DejaVuSans-6b" transform="translate(215.804688 0)"/>
      <use xlink:href="#DejaVuSans-20" transform="translate(273.714844 0)"/>
      <use xlink:href="#DejaVuSans-63" transform="translate(305.501953 0)"/>
      <use xlink:href="#DejaVuSans-6f" transform="translate(360.482422 0)"/>
      <use xlink:href="#DejaVuSans-6e" transform="translate(421.664062 0)"/>
      <use xlink:href="#DejaVuSans-76" transform="translate(485.042969 0)"/>
      <use xlink:href="#DejaVuSans-65" transform="translate(544.222656 0)"/>
      <use xlink:href="#DejaVuSans-72" transform="translate(605.746094 0)"/>
      <use xlink:href="#DejaVuSans-67" transform="translate(645.109375 0)"/>
      <use xlink:href="#DejaVuSans-65" transform="translate(708.585938 0)"/>
      <use xlink:href="#DejaVuSans-6e" transform="translate(770.109375 0)"/>
      <use xlink:href="#DejaVuSans-63" transform="translate(833.488281 0)"/>
      <use xlink:href="#DejaVuSans-65" transform="translate(888.46875 0)"/>
      <use xlink:href="#DejaVuSans-20" transform="translate(949.992188 0)"/>
      <use xlink:href="#DejaVuSans-6c" transform="translate(981.779297 0)"/>
      <use xlink:href="#DejaVuSans-6f" transform="translate(1009.5625 0)"/>
      <use xlink:href="#DejaVuSans-67" transform="translate(1070.744141 0)"/>
      <use xlink:href="#DejaVuSans-20" transform="translate(1134.220703 0)"/>
      <use xlink:href="#DejaVuSans-70" transform="translate(1166.007812 0)"/>
      <use xlink:href="#DejaVuSans-72" transform="translate(1229.484375 0)"/>
      <use xlink:href="#DejaVuSans-6f" transform="translate(1268.347656 0)"/>
      <use xlink:href="#DejaVuSans-62" transform="translate(1329.529297 0)"/>
      <use xlink:href="#DejaVuSans-61" transform="translate(1393.005859 0)"/>
      <use xlink:href="#DejaVuSans-62" transform="translate(1454.285156 0)"/>
      <use xlink:href="#DejaVuSans-69" transform="translate(1517.761719 0)"/>
      <use xlink:href="#DejaVuSans-6c" transform="translate(1545.544922 0)"/>
      <use xlink:href="#DejaVuSans-69" transform="translate(1573.328125 0)"/>
      <use xlink:href="#DejaVuSans-74" transform="translate(1601.111328 0)"/>
      <use xlink:href="#DejaVuSans-79" transform="translate(1640.320312 0)"/>
     </g>
    </g>
   </g>
   <g id="line2d_55">
    <path d="M 500.648182 315.342781 
L 537.955253 284.475237 
L 575.262323 255.230018 
L 612.569394 227.622882 
L 649.876465 200.124092 
L 687.183535 164.224954 
L 724.490606 133.539964 
L 761.797677 90.119551 
L 799.104747 72.169982 
L 799.105689 -1 
" clip-path="url(#p8ea9331b06)" style="fill: none; stroke: #1f77b4; stroke-width: 1.5; stroke-linecap: square"/>
    <g clip-path="url(#p8ea9331b06)">
     <use xlink:href="#m833d9c0b78" x="500.648182" y="315.342781" style="fill: #1f77b4; stroke: #1f77b4"/>
     <use xlink:href="#m833d9c0b78" x="537.955253" y="284.475237" style="fill: #1f77b4; stroke: #1f77b4"/>
     <use xlink:href="#m833d9c0b78" x="575.262323" y="255.230018" style="fill: #1f77b4; stroke: #1f77b4"/>
     <use xlink:href="#m833d9c0b78" x="612.569394" y="227.622882" style="fill: #1f77b4; stroke: #1f77b4"/>
     <use xlink:href="#m833d9c0b78" x="649.876465" y="200.124092" style="fill: #1f77b4; stroke: #1f77b4"/>
     <use xlink:href="#m833d9c0b78" x="687.183535" y="164.224954" style="fill: #1f77b4; stroke: #1f77b4"/>
     <use xlink:href="#m833d9c0b78" x="724.490606" y="133.539964" style="fill: #1f77b4; stroke: #1f77b4"/>
     <use xlink:href="#m833d9c0b78" x="761.797677" y="90.119551" style="fill: #1f77b4; stroke: #1f77b4"/>
     <use xlink:href="#m833d9c0b78" x="799.104747" y="72.169982" style="fill: #1f77b4; stroke: #1f77b4"/>
     <use xlink:href="#m833d9c0b78" x="799.105689" y="-1" style="fill: #1f77b4; stroke: #1f77b4"/>
    </g>
   </g>
   <g id="line2d_56">
    <path d="M 500.648182 315.342781 
L 537.955253 283.400572 
L 575.262323 251.458362 
L 612.569394 219.516152 
L 649.876465 187.573943 
L 687.183535 155.631733 
L 724.490606 123.689524 
L 761.797677 91.747314 
L 799.104747 59.805104 
L 836.411818 27.862895 
" clip-path="url(#p8ea9331b06)" style="fill: none; stroke-dasharray: 5.55,2.4; stroke-dashoffset: 0; stroke: #ff7f0e; stroke-width: 1.5"/>
    <g clip-path="url(#p8ea9331b06)">
     <use xlink:href="#md6d55f817a" x="500.648182" y="315.342781" style="fill: #ff7f0e; stroke: #ff7f0e; stroke-linejoin: miter"/>
     <use xlink:href="#md6d55f817a" x="537.955253" y="283.400572" style="fill: #ff7f0e; stroke: #ff7f0e; stroke-linejoin: miter"/>
     <use xlink:href="#md6d55f817a" x="575.262323" y="251.458362" style="fill: #ff7f0e; stroke: #ff7f0e; stroke-linejoin: miter"/>
     <use xlink:href="#md6d55f817a" x="612.569394" y="219.516152" style="fill: #ff7f0e; stroke: #ff7f0e; stroke-linejoin: miter"/>
     <use xlink:href="#md6d55f817a" x="649.876465" y="187.573943" style="fill: #ff7f0e; stroke: #ff7f0e; stroke-linejoin: miter"/>
     <use xlink:href="#md6d55f817a" x="687.183535" y="155.631733" style="fill: #ff7f0e; stroke: #ff7f0e; stroke-linejoin: miter"/>
     <use xlink:href="#md6d55f817a" x="724.490606" y="123.689524" style="fill: #ff7f0e; stroke: #ff7f0e; stroke-linejoin: miter"/>
     <use xlink:href="#md6d55f817a" x="761.797677" y="91.747314" style="fill: #ff7f0e; stroke: #ff7f0e; stroke-linejoin: miter"/>
     <use xlink:href="#md6d55f817a" x="799.104747" y="59.805104" style="fill: #ff7f0e; stroke: #ff7f0e; stroke-linejoin: miter"/>
     <use xlink:href="#md6d55f817a" x="836.411818" y="27.862895" style="fill: #ff7f0e; stroke: #ff7f0e; stroke-linejoin: miter"/>
    </g>
   </g>
   <g id="patch_9">
    <path d="M 483.86 10.8 
L 483.86 316.6 
" style="fill: none; stroke: #000000; stroke-width: 0.8; stroke-linejoin: miter; stroke-linecap: square"/>
   </g>
   <g id="patch_10">
    <path d="M 853.2 10.8 
L 853.2 316.6 
" style="fill: none; stroke: #000000; stroke-width: 0.8; stroke-linejoin: miter; stroke-linecap: square"/>
   </g>
   <g id="patch_11">
    <path d="M 483.86 316.6 
L 853.2 316.6 
" style="fill: none; stroke: #000000; stroke-width: 0.8; stroke-linejoin: miter; stroke-linecap: square"/>
   </g>
   <g id="patch_12">
    <path d="M 483.86 10.8 
L 853.2 10.8 
" style="fill: none; stroke: #000000; stroke-width: 0.8; stroke-linejoin: miter; stroke-linecap: square"/>
   </g>
   <g id="legend_2">
    <g id="patch_13">
     <path d="M 490.86 50.6 
L 616.06 50.6 
Q 618.06 50.6 618.06 48.6 
L 618.06 17.8 
Q 618.06 15.8 616.06 15.8 
L 490.86 15.8 
Q 488.86 15.8 488.86 17.8 
L 488.86 48.6 
Q 488.86 50.6 490.86 50.6 
z
" style="fill: #ffffff; opacity: 0.8; stroke: #cccccc; stroke-linejoin: miter"/>
    </g>
    <g id="line2d_57">
     <path d="M 492.86 23.9 
L 502.86 23.9 
L 512.86 23.9 
" style="fill: none; stroke: #1f77b4; stroke-width: 1.5; stroke-linecap: square"/>
     <g>
      <use xlink:href="#m833d9c0b78" x="502.86" y="23.9" style="fill: #1f77b4; stroke: #1f77b4"/>
     </g>
    </g>
    <g id="text_32">
     <!-- empirical $1 - p_{weak}$ -->
     <g transform="translate(520.86 27.4) scale(0.1 -0.1)">
      <use xlink:href="#DejaVuSans-65" transform="translate(0 0.015625)"/>
      <use xlink:href="#DejaVuSans-6d" transform="translate(61.523438 0.015625)"/>
      <use xlink:href="#DejaVuSans-70" transform="translate(158.935547 0.015625)"/>
      <use xlink:href="#DejaVuSans-69" transform="translate(222.412109 0.015625)"/>
      <use xlink:href="#DejaVuSans-72" transform="translate(250.195312 0.015625)"/>
      <use xlink:href="#DejaVuSans-69" transform="translate(291.308594 0.015625)"/>
      <use xlink:href="#DejaVuSans-63" transform="translate(319.091797 0.015625)"/>
      <use xlink:href="#DejaVuSans-61" transform="translate(374.072266 0.015625)"/>
      <use xlink:href="#DejaVuSans-6c" transform="translate(435.351562 0.015625)"/>
      <use xlink:href="#DejaVuSans-20" transform="translate(463.134766 0.015625)"/>
      <use xlink:href="#DejaVuSans-31" transform="translate(494.921875 0.015625)"/>
      <use xlink:href="#DejaVuSans-2212" transform="translate(578.027344 0.015625)"/>
      <use xlink:href="#DejaVuSans-Oblique-70" transform="translate(681.298828 0.015625)"/>
      <use xlink:href="#DejaVuSans-Oblique-77" transform="translate(744.775391 -16.390625) scale(0.7)"/>
      <use xlink:href="#DejaVuSans-Oblique-65" transform="translate(802.026367 -16.390625) scale(0.7)"/>
      <use xlink:href="#DejaVuSans-Oblique-61" transform="translate(845.092773 -16.390625) scale(0.7)"/>
      <use xlink:href="#DejaVuSans-Oblique-6b" transform="translate(887.988281 -16.390625) scale(0.7)"/>
     </g>
    </g>
    <g id="line2d_58">
     <path d="M 492.86 40 
L 502.86 40 
L 512.86 40 
" style="fill: none; stroke-dasharray: 5.55,2.4; stroke-dashoffset: 0; stroke: #ff7f0e; stroke-width: 1.5"/>
     <g>
      <use xlink:href="#md6d55f817a" x="502.86" y="40" style="fill: #ff7f0e; stroke: #ff7f0e; stroke-linejoin: miter"/>
     </g>
    </g>
    <g id="text_33">
     <!-- $1 - (1 - p_{weak,dqn})^K$ -->
     <g transform="translate(520.86 43.5) scale(0.1 -0.1)">
      <use xlink:href="#DejaVuSans-31" transform="translate(0 0.684375)"/>
      <use xlink:href="#DejaVuSans-2212" transform="translate(83.105469 0.684375)"/>
      <use xlink:href="#DejaVuSans-28" transform="translate(186.376953 0.684375)"/>
      <use xlink:href="#DejaVuSans-31" transform="translate(225.390625 0.684375)"/>
      <use xlink:href="#DejaVuSans-2212" transform="translate(308.496094 0.684375)"/>
      <use xlink:href="#DejaVuSans-Oblique-70" transform="translate(411.767578 0.684375)"/>
      <use xlink:href="#DejaVuSans-Oblique-77" transform="translate(475.244141 -15.721875) scale(0.7)"/>
      <use xlink:href="#DejaVuSans-Oblique-65" transform="translate(532.495117 -15.721875) scale(0.7)"/>
      <use xlink:href="#DejaVuSans-Oblique-61" transform="translate(575.561523 -15.721875) scale(0.7)"/>
      <use xlink:href="#DejaVuSans-Oblique-6b" transform="translate(618.457031 -15.721875) scale(0.7)"/>
      <use xlink:href="#DejaVuSans-2c" transform="translate(658.994141 -15.721875) scale(0.7)"/>
      <use xlink:href="#DejaVuSans-Oblique-64" transform="translate(694.882812 -15.721875) scale(0.7)"/>
      <use xlink:href="#DejaVuSans-Oblique-71" transform="translate(739.316406 -15.721875) scale(0.7)"/>
      <use xlink:href="#DejaVuSans-Oblique-6e" transform="translate(783.75 -15.721875) scale(0.7)"/>
      <use xlink:href="#DejaVuSans-29" transform="translate(830.849609 0.684375)"/>
      <use xlink:href="#DejaVuSans-Oblique-4b" transform="translate(870.820312 38.965625) scale(0.7)"/>
     </g>
    </g>
   </g>
  </g>
 </g>
 <defs>
  <clipPath id="p082a4fa186">
   <rect x="47.72" y="10.8" width="369.34" height="305.8"/>
  </clipPath>
  <clipPath id="p8ea9331b06">
   <rect x="483.86" y="10.8" width="369.34" height="305.8"/>
  </clipPath>
 </defs>
</svg>
